<svg xmlns="http://www.w3.org/2000/svg" xmlns:xlink="http://www.w3.org/1999/xlink" width="512" zoomAndPan="magnify" viewBox="0 0 384 383.999986" height="512" preserveAspectRatio="xMidYMid meet" version="1.0"><path fill="#bdd056" d="M 192.039062 383.847656 C 190.964844 383.847656 189.890625 383.386719 189.046875 382.621094 L 1.609375 195.179688 C 0 193.570312 0 190.886719 1.609375 189.277344 L 189.046875 1.761719 C 190.660156 0.152344 193.339844 0.152344 194.953125 1.761719 L 382.390625 189.203125 C 384 190.8125 384 193.496094 382.390625 195.105469 L 194.953125 382.542969 C 194.183594 383.308594 193.113281 383.769531 191.960938 383.769531 Z M 10.425781 192.191406 L 191.960938 373.726562 L 373.496094 192.191406 L 192.039062 10.65625 Z M 10.425781 192.191406 " fill-opacity="1" fill-rule="nonzero"/><path fill="#bdd056" d="M 192.039062 301.359375 C 131.859375 301.359375 82.871094 252.371094 82.871094 192.191406 C 82.871094 132.011719 131.859375 83.023438 192.039062 83.023438 C 252.21875 83.023438 301.203125 132.011719 301.203125 192.191406 C 301.203125 252.371094 252.21875 301.359375 192.039062 301.359375 Z M 192.039062 91.457031 C 136.457031 91.457031 91.226562 136.6875 91.226562 192.269531 C 91.226562 247.847656 136.457031 293.078125 192.039062 293.078125 C 247.617188 293.078125 292.847656 247.847656 292.847656 192.269531 C 292.847656 136.6875 247.617188 91.457031 192.039062 91.457031 Z M 192.039062 91.457031 " fill-opacity="1" fill-rule="nonzero"/><path fill="#bdd056" d="M 192.039062 285.644531 C 140.519531 285.644531 98.664062 243.707031 98.664062 192.269531 C 98.664062 140.828125 140.597656 98.894531 192.039062 98.894531 C 243.480469 98.894531 285.414062 140.828125 285.414062 192.269531 C 285.414062 243.707031 243.480469 285.644531 192.039062 285.644531 Z M 192.039062 107.171875 C 145.121094 107.171875 107.019531 145.351562 107.019531 192.191406 C 107.019531 239.03125 145.199219 277.210938 192.039062 277.210938 C 238.878906 277.210938 277.054688 239.03125 277.054688 192.191406 C 277.054688 145.351562 238.878906 107.171875 192.039062 107.171875 Z M 192.039062 107.171875 " fill-opacity="1" fill-rule="nonzero"/><path fill="#bdd056" d="M 222.242188 240.640625 L 161.757812 240.640625 C 159.917969 240.640625 158.308594 239.492188 157.769531 237.730469 L 139.066406 180.230469 C 138.527344 178.546875 139.066406 176.628906 140.597656 175.554688 L 189.507812 139.984375 C 190.964844 138.910156 192.957031 138.910156 194.414062 139.984375 L 243.324219 175.554688 C 244.78125 176.628906 245.394531 178.546875 244.859375 180.230469 L 226.152344 237.730469 C 225.617188 239.414062 224.007812 240.640625 222.167969 240.640625 Z M 164.824219 232.285156 L 219.253906 232.285156 L 236.042969 180.539062 L 192.039062 148.570312 L 148.035156 180.539062 Z M 164.824219 232.285156 " fill-opacity="1" fill-rule="nonzero"/></svg>