<svg xmlns="http://www.w3.org/2000/svg" xmlns:xlink="http://www.w3.org/1999/xlink" width="512" zoomAndPan="magnify" viewBox="0 0 384 383.999986" height="512" preserveAspectRatio="xMidYMid meet" version="1.0"><defs><clipPath id="1782d60aaf"><path d="M 0.347656 0 L 383.597656 0 L 383.597656 384 L 0.347656 384 Z M 0.347656 0 " clip-rule="nonzero"/></clipPath></defs><g clip-path="url(#1782d60aaf)"><path fill="#bdd056" d="M 192.035156 383.878906 C 190.960938 383.878906 189.890625 383.417969 189.046875 382.652344 L 1.574219 195.183594 C 0.808594 194.414062 0.347656 193.339844 0.347656 192.191406 C 0.347656 191.042969 0.808594 190.042969 1.574219 189.203125 L 189.046875 1.730469 C 190.65625 0.121094 193.339844 0.121094 194.949219 1.730469 L 382.417969 189.203125 C 383.1875 189.96875 383.644531 191.042969 383.644531 192.191406 C 383.644531 193.339844 383.1875 194.339844 382.417969 195.183594 L 194.949219 382.652344 C 194.183594 383.417969 193.109375 383.878906 191.960938 383.878906 Z M 10.46875 192.191406 L 192.035156 373.757812 L 373.601562 192.191406 L 192.035156 10.625 Z M 10.46875 192.191406 " fill-opacity="1" fill-rule="nonzero"/></g><path fill="#bdd056" d="M 274.382812 240.496094 C 275.152344 241.261719 275.609375 242.335938 275.609375 243.488281 C 275.609375 244.636719 275.152344 245.632812 274.382812 246.476562 L 246.246094 274.617188 C 245.402344 275.460938 244.328125 275.84375 243.253906 275.84375 C 242.179688 275.84375 241.109375 275.460938 240.265625 274.617188 L 191.960938 226.3125 L 143.652344 274.617188 C 142.042969 276.226562 139.359375 276.226562 137.75 274.617188 L 109.609375 246.476562 C 108.84375 245.710938 108.382812 244.636719 108.382812 243.488281 C 108.382812 242.335938 108.84375 241.339844 109.609375 240.496094 L 157.914062 192.191406 L 109.609375 143.886719 C 108 142.277344 108 139.59375 109.609375 137.984375 L 137.75 109.84375 C 139.359375 108.234375 142.042969 108.234375 143.652344 109.84375 L 191.960938 158.148438 L 240.265625 109.84375 C 241.875 108.234375 244.558594 108.234375 246.167969 109.84375 L 274.308594 137.984375 C 275.917969 139.59375 275.917969 142.277344 274.308594 143.886719 L 226.003906 192.191406 L 274.308594 240.496094 Z M 274.382812 240.496094 " fill-opacity="1" fill-rule="nonzero"/></svg>