<svg xmlns="http://www.w3.org/2000/svg" xmlns:xlink="http://www.w3.org/1999/xlink" width="512" zoomAndPan="magnify" viewBox="0 0 384 383.999986" height="512" preserveAspectRatio="xMidYMid meet" version="1.0"><defs><clipPath id="fe38f07ba3"><path d="M 0.347656 0 L 384 0 L 384 384 L 0.347656 384 Z M 0.347656 0 " clip-rule="nonzero"/></clipPath></defs><g clip-path="url(#fe38f07ba3)"><path fill="#bdd056" d="M 192.210938 384.222656 C 191.136719 384.222656 190.0625 383.765625 189.21875 382.996094 L 1.578125 195.355469 C 0.808594 194.585938 0.347656 193.511719 0.347656 192.363281 C 0.347656 191.210938 0.808594 190.214844 1.578125 189.367188 L 189.21875 1.726562 C 190.832031 0.117188 193.515625 0.117188 195.128906 1.726562 L 382.769531 189.367188 C 383.535156 190.136719 383.996094 191.210938 383.996094 192.363281 C 383.996094 193.511719 383.535156 194.511719 382.769531 195.355469 L 195.128906 382.996094 C 194.359375 383.765625 193.285156 384.222656 192.136719 384.222656 Z M 10.402344 192.363281 L 192.136719 374.09375 L 373.867188 192.363281 L 192.210938 10.628906 Z M 10.402344 192.363281 " fill-opacity="1" fill-rule="nonzero"/></g><path fill="#bdd056" d="M 192.210938 298.039062 C 133.960938 298.039062 86.535156 250.609375 86.535156 192.363281 C 86.535156 134.113281 133.960938 86.683594 192.210938 86.683594 C 250.460938 86.683594 297.890625 134.113281 297.890625 192.363281 C 297.890625 250.609375 250.460938 298.039062 192.210938 298.039062 Z M 192.210938 103.492188 C 143.171875 103.492188 103.265625 143.398438 103.265625 192.4375 C 103.265625 241.480469 143.171875 281.386719 192.210938 281.386719 C 241.25 281.386719 281.160156 241.480469 281.160156 192.4375 C 281.160156 143.398438 241.25 103.492188 192.210938 103.492188 Z M 192.210938 103.492188 " fill-opacity="1" fill-rule="nonzero"/></svg>