<svg xmlns="http://www.w3.org/2000/svg" xmlns:xlink="http://www.w3.org/1999/xlink" width="512" zoomAndPan="magnify" viewBox="0 0 384 383.999986" height="512" preserveAspectRatio="xMidYMid meet" version="1.0"><path fill="#bdd056" d="M 192.039062 384.226562 C 190.964844 384.226562 189.886719 383.765625 189.042969 382.996094 L 1.230469 195.183594 C 0.460938 194.414062 0 193.339844 0 192.1875 C 0 191.035156 0.460938 190.039062 1.230469 189.191406 L 189.042969 1.378906 C 190.65625 -0.234375 193.34375 -0.234375 194.957031 1.378906 L 382.769531 189.191406 C 383.539062 189.960938 384 191.035156 384 192.1875 C 384 193.339844 383.539062 194.339844 382.769531 195.183594 L 194.957031 382.996094 C 194.1875 383.765625 193.113281 384.226562 191.960938 384.226562 Z M 10.0625 192.1875 L 191.960938 374.085938 L 373.859375 192.1875 L 192.039062 10.289062 Z M 10.0625 192.1875 " fill-opacity="1" fill-rule="nonzero"/><path fill="#bdd056" d="M 311.871094 167.300781 L 311.871094 217.078125 C 311.871094 219.378906 309.949219 221.300781 307.644531 221.300781 L 221.074219 221.300781 L 221.074219 307.871094 C 221.074219 310.175781 219.230469 312.097656 216.851562 312.097656 L 167.074219 312.097656 C 164.769531 312.097656 162.847656 310.175781 162.847656 307.871094 L 162.847656 221.300781 L 76.277344 221.300781 C 73.972656 221.300781 72.054688 219.457031 72.054688 217.078125 L 72.054688 167.300781 C 72.054688 164.996094 73.894531 163.074219 76.277344 163.074219 L 162.847656 163.074219 L 162.847656 76.503906 C 162.847656 74.199219 164.769531 72.277344 167.074219 72.277344 L 216.851562 72.277344 C 219.152344 72.277344 221.074219 74.121094 221.074219 76.503906 L 221.074219 163.074219 L 307.644531 163.074219 C 309.949219 163.074219 311.871094 164.996094 311.871094 167.300781 Z M 311.871094 167.300781 " fill-opacity="1" fill-rule="nonzero"/></svg>