<svg xmlns="http://www.w3.org/2000/svg" xmlns:xlink="http://www.w3.org/1999/xlink" width="512" zoomAndPan="magnify" viewBox="0 0 384 383.999986" height="512" preserveAspectRatio="xMidYMid meet" version="1.0"><defs><clipPath id="037f61300d"><path d="M 0 64.582031 L 384 64.582031 L 384 319.582031 L 0 319.582031 Z M 0 64.582031 " clip-rule="nonzero"/></clipPath></defs><g clip-path="url(#037f61300d)"><path fill="#b3c3ea" d="M 357.691406 64.582031 L 26.308594 64.582031 C 11.796875 64.582031 0.046875 76.40625 0.046875 90.839844 L 0.046875 293.160156 C 0.046875 307.671875 11.796875 319.417969 26.308594 319.417969 L 357.691406 319.417969 C 372.128906 319.417969 383.953125 307.671875 383.953125 293.160156 L 383.953125 90.839844 C 383.953125 76.328125 372.203125 64.582031 357.691406 64.582031 Z M 213.960938 310.664062 L 169.964844 310.664062 L 169.964844 267.820312 L 213.960938 267.820312 Z M 375.199219 293.160156 C 375.199219 302.832031 367.367188 310.664062 357.691406 310.664062 L 220.101562 310.664062 L 220.101562 264.75 C 220.101562 263.058594 218.71875 261.679688 217.03125 261.679688 L 166.894531 261.679688 C 165.203125 261.679688 163.820312 263.058594 163.820312 264.75 L 163.820312 310.664062 L 26.308594 310.664062 C 16.632812 310.664062 8.800781 302.832031 8.800781 293.160156 L 8.800781 90.839844 C 8.800781 81.167969 16.632812 73.335938 26.308594 73.335938 L 357.691406 73.335938 C 367.367188 73.335938 375.199219 81.167969 375.199219 90.839844 Z M 375.199219 293.160156 " fill-opacity="1" fill-rule="nonzero"/></g><path fill="#b3c3ea" d="M 208.890625 289.855469 C 208.890625 291.546875 207.507812 292.929688 205.820312 292.929688 L 195.070312 292.929688 L 195.070312 303.675781 C 195.070312 305.367188 193.6875 306.75 192 306.75 C 190.3125 306.75 188.929688 305.367188 188.929688 303.675781 L 188.929688 292.929688 L 178.179688 292.929688 C 176.492188 292.929688 175.109375 291.546875 175.109375 289.855469 C 175.109375 288.167969 176.492188 286.785156 178.179688 286.785156 L 188.929688 286.785156 L 188.929688 276.035156 C 188.929688 274.347656 190.3125 272.964844 192 272.964844 C 193.6875 272.964844 195.070312 274.347656 195.070312 276.035156 L 195.070312 286.785156 L 205.820312 286.785156 C 207.507812 286.785156 208.890625 288.167969 208.890625 289.855469 Z M 208.890625 289.855469 " fill-opacity="1" fill-rule="nonzero"/></svg>