<svg xmlns="http://www.w3.org/2000/svg" xmlns:xlink="http://www.w3.org/1999/xlink" width="512" zoomAndPan="magnify" viewBox="0 0 384 383.999986" height="512" preserveAspectRatio="xMidYMid meet" version="1.0"><defs><clipPath id="951e63b8c8"><path d="M 0 62.03125 L 384 62.03125 L 384 317 L 0 317 Z M 0 62.03125 " clip-rule="nonzero"/></clipPath></defs><g clip-path="url(#951e63b8c8)"><path fill="#b3c3ea" d="M 357.691406 316.789062 L 26.308594 316.789062 C 11.796875 316.789062 0.046875 305.042969 0.046875 290.53125 L 0.046875 88.289062 C 0.046875 73.777344 11.796875 62.03125 26.308594 62.03125 L 357.691406 62.03125 C 372.203125 62.03125 383.953125 73.777344 383.953125 88.289062 L 383.953125 290.609375 C 383.953125 305.121094 372.203125 316.867188 357.691406 316.867188 Z M 26.308594 70.785156 C 16.632812 70.785156 8.800781 78.617188 8.800781 88.289062 L 8.800781 290.609375 C 8.800781 300.28125 16.632812 308.113281 26.308594 308.113281 L 357.691406 308.113281 C 367.367188 308.113281 375.199219 300.28125 375.199219 290.609375 L 375.199219 88.289062 C 375.199219 78.617188 367.367188 70.785156 357.691406 70.785156 Z M 26.308594 70.785156 " fill-opacity="1" fill-rule="nonzero"/></g></svg>