<svg xmlns="http://www.w3.org/2000/svg" xmlns:xlink="http://www.w3.org/1999/xlink" width="512" zoomAndPan="magnify" viewBox="0 0 384 383.999986" height="512" preserveAspectRatio="xMidYMid meet" version="1.0"><path fill="#d65157" d="M 192 0 C 85.9375 0 0 85.9375 0 192 C 0 298.0625 85.9375 384 192 384 C 298.0625 384 384 298.0625 384 192 C 384 85.9375 298.0625 0 192 0 Z M 192 355.199219 C 101.835938 355.199219 28.800781 282.164062 28.800781 192 C 28.800781 101.835938 101.835938 28.800781 192 28.800781 C 282.164062 28.800781 355.199219 101.835938 355.199219 192 C 355.199219 282.164062 282.164062 355.199219 192 355.199219 Z M 192 355.199219 " fill-opacity="1" fill-rule="nonzero"/><path fill="#d65157" d="M 289 270.796875 L 95 270.796875 C 93.542969 270.796875 92.238281 270.027344 91.46875 268.800781 C 90.699219 267.570312 90.777344 266.035156 91.46875 264.730469 L 188.46875 96.691406 C 189.160156 95.460938 190.539062 94.695312 192 94.695312 C 193.460938 94.695312 194.765625 95.460938 195.53125 96.691406 L 292.53125 264.730469 C 293.222656 265.957031 293.222656 267.496094 292.53125 268.800781 C 291.839844 270.105469 290.457031 270.796875 289 270.796875 Z M 289 270.796875 " fill-opacity="1" fill-rule="nonzero"/></svg>