<svg xmlns="http://www.w3.org/2000/svg" xmlns:xlink="http://www.w3.org/1999/xlink" width="512" zoomAndPan="magnify" viewBox="0 0 384 383.999986" height="512" preserveAspectRatio="xMidYMid meet" version="1.0"><path fill="#d65157" d="M 192 0 C 85.9375 0 0 85.9375 0 192 C 0 298.0625 85.9375 384 192 384 C 298.0625 384 384 298.0625 384 192 C 384 85.9375 297.984375 0 192 0 Z M 192 355.199219 C 101.835938 355.199219 28.800781 282.164062 28.800781 192 C 28.800781 101.835938 101.835938 28.800781 192 28.800781 C 282.164062 28.800781 355.199219 101.835938 355.199219 192 C 355.199219 282.164062 282.164062 355.199219 192 355.199219 Z M 192 355.199219 " fill-opacity="1" fill-rule="nonzero"/><path fill="#d65157" d="M 192 202.445312 L 82.945312 123.109375 L 301.363281 123.109375 Z M 194.226562 210.277344 C 193.535156 210.738281 192.769531 211.046875 192 211.046875 C 191.230469 211.046875 190.386719 210.816406 189.773438 210.277344 L 76.339844 127.796875 L 76.339844 256.894531 C 76.339844 259.125 78.183594 260.964844 80.410156 260.964844 L 303.667969 260.964844 C 305.894531 260.964844 307.738281 259.199219 307.738281 256.894531 L 307.738281 128.027344 L 194.304688 210.355469 Z M 194.226562 210.277344 " fill-opacity="1" fill-rule="nonzero"/></svg>