<svg xmlns="http://www.w3.org/2000/svg" xmlns:xlink="http://www.w3.org/1999/xlink" width="512" zoomAndPan="magnify" viewBox="0 0 384 383.999986" height="512" preserveAspectRatio="xMidYMid meet" version="1.0"><path fill="#d65157" d="M 192 0 C 85.9375 0 0 85.9375 0 192 C 0 298.0625 85.9375 384 192 384 C 298.0625 384 384 298.0625 384 192 C 384 85.9375 298.0625 0 192 0 Z M 192 355.199219 C 101.835938 355.199219 28.800781 282.164062 28.800781 192 C 28.800781 101.835938 101.835938 28.800781 192 28.800781 C 282.164062 28.800781 355.199219 101.835938 355.199219 192 C 355.199219 282.164062 282.164062 355.199219 192 355.199219 Z M 192 355.199219 " fill-opacity="1" fill-rule="nonzero"/><path fill="#d65157" d="M 245.835938 279.78125 L 137.546875 279.78125 C 135.78125 279.78125 134.246094 278.628906 133.707031 277.015625 L 100.222656 174.027344 C 99.6875 172.339844 100.222656 170.574219 101.683594 169.496094 L 189.3125 105.832031 C 190.695312 104.832031 192.613281 104.832031 194.074219 105.832031 L 281.703125 169.496094 C 283.085938 170.496094 283.699219 172.339844 283.160156 174.027344 L 249.675781 277.015625 C 249.140625 278.707031 247.601562 279.78125 245.835938 279.78125 Z M 245.835938 279.78125 " fill-opacity="1" fill-rule="nonzero"/></svg>