<svg xmlns="http://www.w3.org/2000/svg" xmlns:xlink="http://www.w3.org/1999/xlink" width="512" zoomAndPan="magnify" viewBox="0 0 384 383.999986" height="512" preserveAspectRatio="xMidYMid meet" version="1.0"><path fill="#d65157" d="M 192 0 C 85.957031 0 0 85.957031 0 192 C 0 298.042969 85.957031 384 192 384 C 298.042969 384 384 298.042969 384 192 C 384 85.957031 298.042969 0 192 0 Z M 192 355.21875 C 101.886719 355.21875 28.78125 282.191406 28.78125 192 C 28.78125 101.808594 101.886719 28.78125 192 28.78125 C 282.113281 28.78125 355.21875 101.808594 355.21875 192 C 355.21875 282.191406 282.191406 355.21875 192 355.21875 Z M 192 355.21875 " fill-opacity="1" fill-rule="nonzero"/><path fill="#d65157" d="M 322.589844 192 C 322.589844 264.105469 264.105469 322.589844 192 322.589844 C 119.894531 322.589844 61.410156 264.105469 61.410156 192 C 61.410156 119.894531 119.894531 61.410156 192 61.410156 C 264.105469 61.410156 322.589844 119.894531 322.589844 192 Z M 322.589844 192 " fill-opacity="1" fill-rule="nonzero"/></svg>