<svg xmlns="http://www.w3.org/2000/svg" xmlns:xlink="http://www.w3.org/1999/xlink" width="512" zoomAndPan="magnify" viewBox="0 0 384 383.999986" height="512" preserveAspectRatio="xMidYMid meet" version="1.0"><path fill="#fecf88" d="M 192 384 C 140.699219 384 92.46875 364.03125 56.21875 327.78125 C 19.96875 291.53125 0 243.300781 0 192 C 0 140.699219 19.96875 92.46875 56.21875 56.21875 C 92.46875 19.96875 140.699219 0 192 0 C 243.300781 0 291.53125 19.96875 327.78125 56.21875 C 364.03125 92.46875 384 140.699219 384 192 C 384 243.300781 364.03125 291.53125 327.78125 327.78125 C 291.53125 364.03125 243.300781 384 192 384 Z M 192 8.0625 C 142.847656 8.0625 96.691406 27.1875 61.976562 61.902344 C 27.1875 96.691406 8.0625 142.847656 8.0625 192 C 8.0625 241.152344 27.1875 287.308594 61.902344 322.023438 C 96.613281 356.734375 142.847656 375.859375 191.921875 375.859375 C 241 375.859375 287.230469 356.734375 321.945312 322.023438 C 356.660156 287.308594 375.78125 241.074219 375.78125 192 C 375.78125 142.925781 356.660156 96.691406 321.945312 61.976562 C 287.308594 27.1875 241.152344 8.0625 192 8.0625 Z M 192 8.0625 " fill-opacity="1" fill-rule="nonzero"/><path fill="#fecf88" d="M 292.914062 123.648438 C 291.6875 122.957031 290.148438 122.957031 288.84375 123.648438 L 180.019531 186.46875 L 180.019531 127.179688 C 180.019531 125.722656 179.25 124.414062 178.023438 123.648438 C 176.792969 122.957031 175.257812 122.957031 173.953125 123.648438 L 61.59375 188.542969 C 60.363281 189.234375 59.597656 190.617188 59.597656 192.078125 C 59.597656 193.535156 60.363281 194.839844 61.59375 195.609375 L 173.953125 260.503906 C 174.566406 260.890625 175.257812 261.042969 175.949219 261.042969 C 176.640625 261.042969 177.332031 260.890625 177.945312 260.503906 C 179.175781 259.8125 179.941406 258.433594 179.941406 256.972656 L 179.941406 197.683594 L 288.769531 260.503906 C 289.382812 260.890625 290.074219 261.042969 290.765625 261.042969 C 291.457031 261.042969 292.148438 260.890625 292.761719 260.503906 C 293.992188 259.8125 294.757812 258.433594 294.757812 256.972656 L 294.757812 127.257812 C 294.757812 125.796875 293.992188 124.492188 292.761719 123.726562 Z M 172.03125 249.832031 L 71.808594 191.921875 L 172.03125 134.09375 Z M 286.847656 249.832031 L 186.625 191.921875 L 286.847656 134.09375 Z M 286.847656 249.832031 " fill-opacity="1" fill-rule="nonzero"/></svg>