<svg xmlns="http://www.w3.org/2000/svg" xmlns:xlink="http://www.w3.org/1999/xlink" width="512" zoomAndPan="magnify" viewBox="0 0 384 383.999986" height="512" preserveAspectRatio="xMidYMid meet" version="1.0"><path fill="#fecf88" d="M 307.660156 192 C 307.660156 193.304688 307.046875 194.535156 305.972656 195.300781 L 216.960938 260.199219 C 216.269531 260.734375 215.425781 260.964844 214.578125 260.964844 C 213.734375 260.964844 213.351562 260.8125 212.734375 260.503906 C 211.355469 259.8125 210.507812 258.433594 210.507812 256.894531 L 210.507812 220.03125 L 80.410156 220.03125 C 78.183594 220.03125 76.339844 218.1875 76.339844 215.960938 L 76.339844 167.960938 C 76.339844 165.734375 78.183594 163.890625 80.410156 163.890625 L 210.585938 163.890625 L 210.585938 127.027344 C 210.585938 125.492188 211.429688 124.109375 212.8125 123.417969 C 214.195312 122.726562 215.808594 122.878906 217.035156 123.726562 L 306.046875 188.621094 C 307.125 189.390625 307.738281 190.617188 307.738281 191.921875 Z M 307.660156 192 " fill-opacity="1" fill-rule="nonzero"/><path fill="#fecf88" d="M 192 384 C 140.699219 384 92.46875 364.03125 56.21875 327.78125 C 19.96875 291.53125 0 243.300781 0 192 C 0 140.699219 19.96875 92.46875 56.21875 56.21875 C 92.46875 19.96875 140.699219 0 192 0 C 243.300781 0 291.53125 19.96875 327.78125 56.21875 C 364.03125 92.46875 384 140.699219 384 192 C 384 243.300781 364.03125 291.53125 327.78125 327.78125 C 291.53125 364.03125 243.300781 384 192 384 Z M 192 8.0625 C 142.847656 8.0625 96.691406 27.1875 61.976562 61.902344 C 27.1875 96.691406 8.0625 142.847656 8.0625 192 C 8.0625 241.152344 27.1875 287.308594 61.902344 322.023438 C 96.613281 356.734375 142.847656 375.859375 191.921875 375.859375 C 241 375.859375 287.230469 356.734375 321.945312 322.023438 C 356.660156 287.308594 375.78125 241.074219 375.78125 192 C 375.78125 142.925781 356.660156 96.691406 321.945312 61.976562 C 287.308594 27.1875 241.152344 8.0625 192 8.0625 Z M 192 8.0625 " fill-opacity="1" fill-rule="nonzero"/><path fill="#fecf88" d="M 192 355.8125 C 101.683594 355.8125 28.1875 282.316406 28.1875 192 C 28.1875 101.683594 101.683594 28.1875 192 28.1875 C 282.316406 28.1875 355.8125 101.683594 355.8125 192 C 355.8125 282.316406 282.316406 355.8125 192 355.8125 Z M 192 36.25 C 106.136719 36.25 36.25 106.136719 36.25 192 C 36.25 277.863281 106.136719 347.75 192 347.75 C 277.863281 347.75 347.75 277.863281 347.75 192 C 347.75 106.136719 277.863281 36.25 192 36.25 Z M 192 36.25 " fill-opacity="1" fill-rule="nonzero"/></svg>