<svg xmlns="http://www.w3.org/2000/svg" xmlns:xlink="http://www.w3.org/1999/xlink" width="512" zoomAndPan="magnify" viewBox="0 0 384 383.999986" height="512" preserveAspectRatio="xMidYMid meet" version="1.0"><path fill="#fecf88" d="M 192 384 C 140.699219 384 92.46875 364.03125 56.21875 327.78125 C 19.96875 291.457031 0 243.300781 0 192 C 0 140.699219 19.96875 92.46875 56.21875 56.21875 C 92.46875 19.96875 140.699219 0 192 0 C 243.300781 0 291.53125 19.96875 327.78125 56.21875 C 364.03125 92.46875 384 140.699219 384 192 C 384 243.300781 364.03125 291.53125 327.78125 327.78125 C 291.53125 364.03125 243.300781 384 192 384 Z M 192 8.0625 C 142.847656 8.0625 96.691406 27.1875 61.976562 61.902344 C 27.1875 96.691406 8.0625 142.847656 8.0625 192 C 8.0625 241.152344 27.1875 287.308594 61.902344 322.023438 C 96.613281 356.734375 142.847656 375.859375 191.921875 375.859375 C 241 375.859375 287.230469 356.734375 321.945312 322.023438 C 356.660156 287.308594 375.78125 241.074219 375.78125 192 C 375.78125 142.925781 356.660156 96.691406 321.945312 61.976562 C 287.308594 27.1875 241.074219 8.0625 192 8.0625 Z M 192 355.8125 C 101.683594 355.8125 28.1875 282.316406 28.1875 192 C 28.1875 101.683594 101.683594 28.1875 192 28.1875 C 282.316406 28.1875 355.8125 101.683594 355.8125 192 C 355.8125 282.316406 282.316406 355.8125 192 355.8125 Z M 192 36.25 C 106.136719 36.25 36.25 106.136719 36.25 192 C 36.25 277.863281 106.136719 347.75 192 347.75 C 277.863281 347.75 347.75 277.863281 347.75 192 C 347.75 106.136719 277.863281 36.25 192 36.25 Z M 192 36.25 " fill-opacity="1" fill-rule="nonzero"/><path fill="#fecf88" d="M 192 202.445312 L 82.945312 123.109375 L 301.363281 123.109375 Z M 194.226562 210.277344 C 193.535156 210.738281 192.769531 211.046875 192 211.046875 C 191.230469 211.046875 190.386719 210.816406 189.773438 210.277344 L 76.339844 127.796875 L 76.339844 256.894531 C 76.339844 259.125 78.183594 260.964844 80.410156 260.964844 L 303.667969 260.964844 C 305.894531 260.964844 307.738281 259.199219 307.738281 256.894531 L 307.738281 128.027344 L 194.304688 210.355469 Z M 194.226562 210.277344 " fill-opacity="1" fill-rule="nonzero"/></svg>