<svg xmlns="http://www.w3.org/2000/svg" xmlns:xlink="http://www.w3.org/1999/xlink" width="512" zoomAndPan="magnify" viewBox="0 0 384 383.999986" height="512" preserveAspectRatio="xMidYMid meet" version="1.0"><path fill="#fecf88" d="M 192 384 C 140.699219 384 92.46875 364.03125 56.21875 327.78125 C 19.96875 291.53125 0 243.300781 0 192 C 0 140.699219 19.96875 92.46875 56.21875 56.21875 C 92.46875 19.96875 140.699219 0 192 0 C 243.300781 0 291.53125 19.96875 327.78125 56.21875 C 364.03125 92.46875 384 140.699219 384 192 C 384 243.300781 364.03125 291.53125 327.78125 327.78125 C 291.53125 364.03125 243.300781 384 192 384 Z M 192 8.0625 C 142.847656 8.0625 96.691406 27.1875 61.976562 61.902344 C 27.1875 96.691406 8.0625 142.847656 8.0625 192 C 8.0625 241.152344 27.1875 287.308594 61.902344 322.023438 C 96.613281 356.734375 142.847656 375.859375 191.921875 375.859375 C 241 375.859375 287.230469 356.734375 321.945312 322.023438 C 356.660156 287.308594 375.78125 241.074219 375.78125 192 C 375.78125 142.925781 356.660156 96.691406 321.945312 61.976562 C 287.308594 27.1875 241.152344 8.0625 192 8.0625 Z M 192 8.0625 " fill-opacity="1" fill-rule="nonzero"/><path fill="#fecf88" d="M 192 355.8125 C 101.683594 355.8125 28.1875 282.316406 28.1875 192 C 28.1875 101.683594 101.683594 28.1875 192 28.1875 C 282.316406 28.1875 355.8125 101.683594 355.8125 192 C 355.8125 282.316406 282.316406 355.8125 192 355.8125 Z M 192 36.25 C 106.136719 36.25 36.25 106.136719 36.25 192 C 36.25 277.863281 106.136719 347.75 192 347.75 C 277.863281 347.75 347.75 277.863281 347.75 192 C 347.75 106.136719 277.863281 36.25 192 36.25 Z M 192 36.25 " fill-opacity="1" fill-rule="nonzero"/><path fill="#fecf88" d="M 253.976562 291.992188 C 252.980469 291.992188 251.902344 291.609375 251.136719 290.839844 L 192.078125 231.78125 L 133.019531 290.839844 C 131.40625 292.453125 128.871094 292.453125 127.335938 290.839844 L 93.390625 256.894531 C 92.621094 256.128906 92.238281 255.128906 92.238281 254.054688 C 92.238281 252.980469 92.699219 251.980469 93.390625 251.210938 L 152.449219 192.152344 L 93.390625 133.09375 C 91.777344 131.480469 91.777344 128.945312 93.390625 127.410156 L 127.335938 93.464844 C 128.101562 92.699219 129.101562 92.3125 130.175781 92.3125 C 131.25 92.3125 132.25 92.773438 133.019531 93.464844 L 192.078125 152.523438 L 251.136719 93.464844 C 251.902344 92.699219 252.902344 92.3125 253.976562 92.3125 C 255.054688 92.3125 256.050781 92.773438 256.820312 93.464844 L 290.765625 127.410156 C 292.378906 129.023438 292.378906 131.558594 290.765625 133.09375 L 231.707031 192.152344 L 290.765625 251.210938 C 291.53125 251.980469 291.917969 252.980469 291.917969 254.054688 C 291.917969 255.128906 291.457031 256.128906 290.765625 256.894531 L 256.820312 290.839844 C 256.050781 291.609375 254.976562 291.992188 253.976562 291.992188 Z M 192 221.953125 C 193 221.953125 194.074219 222.335938 194.839844 223.105469 L 253.902344 282.164062 L 282.164062 253.902344 L 223.105469 194.839844 C 221.492188 193.230469 221.492188 190.695312 223.105469 189.160156 L 282.164062 130.097656 L 253.902344 101.835938 L 194.839844 160.894531 C 193.230469 162.507812 190.695312 162.507812 189.160156 160.894531 L 130.097656 101.835938 L 101.835938 130.097656 L 160.894531 189.160156 C 162.507812 190.769531 162.507812 193.304688 160.894531 194.839844 L 101.835938 253.902344 L 130.097656 282.164062 L 189.160156 223.105469 C 189.925781 222.335938 191 221.953125 192 221.953125 Z M 192 221.953125 " fill-opacity="1" fill-rule="nonzero"/></svg>