<svg xmlns="http://www.w3.org/2000/svg" xmlns:xlink="http://www.w3.org/1999/xlink" width="512" zoomAndPan="magnify" viewBox="0 0 384 383.999986" height="512" preserveAspectRatio="xMidYMid meet" version="1.0"><path fill="#fecf88" d="M 192 384 C 140.699219 384 92.46875 364.03125 56.21875 327.78125 C 19.96875 291.457031 0 243.300781 0 192 C 0 140.699219 19.96875 92.46875 56.21875 56.21875 C 92.46875 19.96875 140.699219 0 192 0 C 243.300781 0 291.53125 19.96875 327.78125 56.21875 C 364.03125 92.46875 384 140.699219 384 192 C 384 243.300781 364.03125 291.53125 327.78125 327.78125 C 291.53125 364.03125 243.300781 384 192 384 Z M 192 8.0625 C 142.847656 8.0625 96.691406 27.1875 61.976562 61.902344 C 27.1875 96.691406 8.0625 142.847656 8.0625 192 C 8.0625 241.152344 27.1875 287.308594 61.902344 322.023438 C 96.613281 356.734375 142.847656 375.859375 191.921875 375.859375 C 241 375.859375 287.230469 356.734375 321.945312 322.023438 C 356.660156 287.308594 375.78125 241.074219 375.78125 192 C 375.78125 142.925781 356.660156 96.691406 321.945312 61.976562 C 287.308594 27.1875 241.074219 8.0625 192 8.0625 Z M 192 8.0625 " fill-opacity="1" fill-rule="nonzero"/><path fill="#fecf88" d="M 192 355.8125 C 101.683594 355.8125 28.1875 282.316406 28.1875 192 C 28.1875 101.683594 101.683594 28.1875 192 28.1875 C 282.316406 28.1875 355.8125 101.683594 355.8125 192 C 355.8125 282.316406 282.316406 355.8125 192 355.8125 Z M 192 36.25 C 106.136719 36.25 36.25 106.136719 36.25 192 C 36.25 277.863281 106.136719 347.75 192 347.75 C 277.863281 347.75 347.75 277.863281 347.75 192 C 347.75 106.136719 277.863281 36.25 192 36.25 Z M 192 36.25 " fill-opacity="1" fill-rule="nonzero"/><path fill="#fecf88" d="M 214.578125 260.890625 C 213.964844 260.890625 213.351562 260.734375 212.734375 260.429688 C 211.355469 259.738281 210.507812 258.355469 210.507812 256.820312 L 210.507812 219.957031 L 80.332031 219.957031 C 78.105469 219.957031 76.261719 218.113281 76.261719 215.886719 L 76.261719 167.960938 C 76.261719 165.734375 78.105469 163.890625 80.332031 163.890625 L 210.507812 163.890625 L 210.507812 127.027344 C 210.507812 125.492188 211.355469 124.109375 212.734375 123.417969 C 214.117188 122.726562 215.730469 122.878906 216.960938 123.726562 L 305.972656 188.621094 C 307.046875 189.390625 307.660156 190.617188 307.660156 191.921875 C 307.660156 193.230469 307.046875 194.457031 305.972656 195.226562 L 216.960938 260.121094 C 216.269531 260.660156 215.425781 260.890625 214.578125 260.890625 Z M 84.402344 211.890625 L 214.578125 211.890625 C 216.804688 211.890625 218.648438 213.734375 218.648438 215.960938 L 218.648438 248.910156 L 296.753906 192 L 218.648438 135.089844 L 218.648438 168.039062 C 218.648438 170.265625 216.804688 172.109375 214.578125 172.109375 L 84.402344 172.109375 L 84.402344 211.96875 Z M 84.402344 211.890625 " fill-opacity="1" fill-rule="nonzero"/></svg>