<svg xmlns="http://www.w3.org/2000/svg" xmlns:xlink="http://www.w3.org/1999/xlink" width="512" zoomAndPan="magnify" viewBox="0 0 384 383.999986" height="512" preserveAspectRatio="xMidYMid meet" version="1.0"><path fill="#aad48a" d="M 192 384 C 140.699219 384 92.46875 364.03125 56.21875 327.78125 C 19.96875 291.53125 0 243.300781 0 192 C 0 140.699219 19.96875 92.46875 56.21875 56.21875 C 92.46875 19.96875 140.699219 0 192 0 C 243.300781 0 291.53125 19.96875 327.78125 56.21875 C 364.03125 92.46875 384 140.699219 384 192 C 384 243.300781 364.03125 291.53125 327.78125 327.78125 C 291.53125 364.03125 243.300781 384 192 384 Z M 192 8.0625 C 142.847656 8.0625 96.691406 27.1875 61.976562 61.902344 C 27.1875 96.691406 8.0625 142.847656 8.0625 192 C 8.0625 241.152344 27.1875 287.308594 61.902344 322.023438 C 96.613281 356.734375 142.847656 375.859375 191.921875 375.859375 C 241 375.859375 287.230469 356.734375 321.945312 322.023438 C 356.660156 287.308594 375.78125 241.074219 375.78125 192 C 375.78125 142.925781 356.660156 96.691406 321.945312 61.976562 C 287.308594 27.1875 241.152344 8.0625 192 8.0625 Z M 192 8.0625 " fill-opacity="1" fill-rule="nonzero"/><path fill="#aad48a" d="M 289 269.03125 L 95 269.03125 C 93.542969 269.03125 92.238281 268.261719 91.46875 267.035156 C 90.699219 265.804688 90.777344 264.269531 91.46875 262.964844 L 188.46875 94.925781 C 189.160156 93.695312 190.539062 92.929688 192 92.929688 C 193.460938 92.929688 194.765625 93.695312 195.53125 94.925781 L 292.53125 262.964844 C 293.222656 264.191406 293.222656 265.726562 292.53125 267.035156 C 291.839844 268.339844 290.457031 269.03125 289 269.03125 Z M 101.992188 260.964844 L 282.007812 260.964844 L 192 105.0625 Z M 101.992188 260.964844 " fill-opacity="1" fill-rule="nonzero"/></svg>