<svg xmlns="http://www.w3.org/2000/svg" xmlns:xlink="http://www.w3.org/1999/xlink" width="512" zoomAndPan="magnify" viewBox="0 0 384 383.999986" height="512" preserveAspectRatio="xMidYMid meet" version="1.0"><path fill="#aad48a" d="M 192 384 C 140.699219 384 92.46875 364.03125 56.21875 327.78125 C 19.96875 291.53125 0 243.300781 0 192 C 0 140.699219 19.96875 92.46875 56.21875 56.21875 C 92.46875 19.96875 140.699219 0 192 0 C 243.300781 0 291.53125 19.96875 327.78125 56.21875 C 364.03125 92.46875 384 140.699219 384 192 C 384 243.300781 364.03125 291.53125 327.78125 327.78125 C 291.53125 364.03125 243.300781 384 192 384 Z M 192 8.0625 C 142.847656 8.0625 96.691406 27.1875 61.976562 61.902344 C 27.1875 96.691406 8.0625 142.847656 8.0625 192 C 8.0625 241.152344 27.1875 287.308594 61.902344 322.023438 C 96.613281 356.734375 142.847656 375.859375 191.921875 375.859375 C 241 375.859375 287.230469 356.734375 321.945312 322.023438 C 356.660156 287.308594 375.78125 241.074219 375.78125 192 C 375.78125 142.925781 356.660156 96.691406 321.945312 61.976562 C 287.308594 27.1875 241.152344 8.0625 192 8.0625 Z M 192 8.0625 " fill-opacity="1" fill-rule="nonzero"/><path fill="#aad48a" d="M 273.023438 299.136719 L 110.898438 299.136719 C 108.671875 299.136719 106.828125 297.292969 106.828125 295.066406 L 106.828125 88.859375 C 106.828125 86.628906 108.671875 84.789062 110.898438 84.789062 L 273.023438 84.789062 C 275.25 84.789062 277.09375 86.628906 277.09375 88.859375 L 277.09375 295.140625 C 277.09375 297.371094 275.25 299.210938 273.023438 299.210938 Z M 114.96875 291.070312 L 268.953125 291.070312 L 268.953125 92.929688 L 114.96875 92.929688 Z M 248.449219 142.464844 C 248.449219 140.238281 246.605469 138.394531 244.378906 138.394531 L 139.46875 138.394531 C 137.242188 138.394531 135.398438 140.238281 135.398438 142.464844 C 135.398438 144.691406 137.242188 146.535156 139.46875 146.535156 L 244.378906 146.535156 C 246.605469 146.535156 248.449219 144.691406 248.449219 142.464844 Z M 248.449219 192 C 248.449219 189.773438 246.605469 187.929688 244.378906 187.929688 L 139.46875 187.929688 C 137.242188 187.929688 135.398438 189.773438 135.398438 192 C 135.398438 194.226562 137.242188 196.070312 139.46875 196.070312 L 244.378906 196.070312 C 246.605469 196.070312 248.449219 194.226562 248.449219 192 Z M 248.449219 241.535156 C 248.449219 239.308594 246.605469 237.464844 244.378906 237.464844 L 139.46875 237.464844 C 137.242188 237.464844 135.398438 239.308594 135.398438 241.535156 C 135.398438 243.761719 137.242188 245.605469 139.46875 245.605469 L 244.378906 245.605469 C 246.605469 245.605469 248.449219 243.761719 248.449219 241.535156 Z M 248.449219 241.535156 " fill-opacity="1" fill-rule="nonzero"/></svg>