<svg xmlns="http://www.w3.org/2000/svg" xmlns:xlink="http://www.w3.org/1999/xlink" width="512" zoomAndPan="magnify" viewBox="0 0 384 383.999986" height="512" preserveAspectRatio="xMidYMid meet" version="1.0"><path fill="#aad48a" d="M 192 384 C 140.699219 384 92.46875 364.03125 56.21875 327.78125 C 19.96875 291.53125 0 243.300781 0 192 C 0 140.699219 19.96875 92.46875 56.21875 56.21875 C 92.46875 19.96875 140.699219 0 192 0 C 243.300781 0 291.53125 19.96875 327.78125 56.21875 C 364.03125 92.46875 384 140.699219 384 192 C 384 243.300781 364.03125 291.53125 327.78125 327.78125 C 291.53125 364.03125 243.300781 384 192 384 Z M 192 8.0625 C 142.847656 8.0625 96.691406 27.1875 61.976562 61.902344 C 27.1875 96.691406 8.0625 142.847656 8.0625 192 C 8.0625 241.152344 27.1875 287.308594 61.902344 322.023438 C 96.613281 356.734375 142.847656 375.859375 191.921875 375.859375 C 241 375.859375 287.230469 356.734375 321.945312 322.023438 C 356.660156 287.308594 375.78125 241.074219 375.78125 192 C 375.78125 142.925781 356.660156 96.691406 321.945312 61.976562 C 287.308594 27.1875 241.152344 8.0625 192 8.0625 Z M 192 8.0625 " fill-opacity="1" fill-rule="nonzero"/><path fill="#aad48a" d="M 233.625 278.09375 C 232.398438 278.09375 231.167969 277.476562 230.398438 276.480469 C 219.339844 261.734375 186.007812 217.421875 163.660156 187.699219 L 94.617188 260.890625 C 93.234375 262.347656 91.007812 262.578125 89.394531 261.425781 L 88.472656 260.8125 C 86.859375 259.660156 86.246094 257.511719 87.167969 255.742188 C 92.3125 245.222656 109.59375 210.203125 126.335938 176.257812 C 141.003906 146.535156 154.90625 118.347656 158.824219 110.363281 C 159.4375 109.132812 160.664062 108.289062 162.046875 108.132812 C 163.429688 107.980469 164.8125 108.59375 165.65625 109.746094 C 174.949219 122.113281 205.824219 163.125 227.558594 192.078125 L 290.148438 107.75 C 291.378906 106.136719 293.53125 105.675781 295.296875 106.597656 C 297.0625 107.519531 297.832031 109.671875 297.214844 111.511719 C 292.683594 124.03125 278.628906 162.585938 265.191406 199.527344 C 252.980469 233.164062 241.230469 265.421875 237.542969 275.480469 C 237.003906 276.863281 235.777344 277.863281 234.316406 278.09375 C 234.085938 278.09375 233.933594 278.09375 233.703125 278.09375 Z M 163.96875 177.332031 C 163.96875 177.332031 164.121094 177.332031 164.199219 177.332031 C 165.425781 177.332031 166.503906 178.023438 167.195312 178.945312 C 187.085938 205.441406 217.804688 246.222656 232.320312 265.574219 C 237.464844 251.441406 247.296875 224.488281 257.433594 196.609375 C 265.421875 174.566406 273.714844 151.988281 280.011719 134.628906 L 230.785156 200.984375 C 230.015625 201.984375 228.789062 202.597656 227.558594 202.597656 C 226.253906 202.597656 225.101562 201.984375 224.332031 200.984375 C 204.902344 175.105469 176.101562 136.859375 163.125 119.65625 C 157.210938 131.636719 145.613281 155.136719 133.554688 179.636719 C 123.109375 200.910156 112.359375 222.566406 104.601562 238.386719 L 161.050781 178.484375 C 161.816406 177.636719 162.894531 177.175781 163.96875 177.175781 Z M 163.96875 177.332031 " fill-opacity="1" fill-rule="nonzero"/></svg>