<svg xmlns="http://www.w3.org/2000/svg" xmlns:xlink="http://www.w3.org/1999/xlink" width="512" zoomAndPan="magnify" viewBox="0 0 384 383.999986" height="512" preserveAspectRatio="xMidYMid meet" version="1.0"><path fill="#aad48a" d="M 192 383.921875 C 140.699219 383.921875 92.46875 363.957031 56.21875 327.707031 C 19.96875 291.457031 0 243.226562 0 191.921875 C 0 140.621094 19.96875 92.46875 56.21875 56.21875 C 92.46875 19.96875 140.699219 0 192 0 C 243.300781 0 291.53125 19.96875 327.78125 56.21875 C 364.03125 92.46875 384 140.699219 384 192 C 384 243.300781 364.03125 291.53125 327.78125 327.78125 C 291.53125 364.03125 243.300781 384 192 384 Z M 192 8.0625 C 142.847656 8.0625 96.691406 27.1875 61.976562 61.902344 C 27.1875 96.613281 8.0625 142.847656 8.0625 191.921875 C 8.0625 241 27.1875 287.230469 61.902344 321.945312 C 96.613281 356.660156 142.847656 375.78125 191.921875 375.78125 C 241 375.78125 287.230469 356.660156 321.945312 321.945312 C 356.660156 287.230469 375.78125 241 375.78125 191.921875 C 375.78125 142.847656 356.660156 96.613281 321.945312 61.902344 C 287.308594 27.1875 241.152344 8.0625 192 8.0625 Z M 192 8.0625 " fill-opacity="1" fill-rule="nonzero"/><path fill="#aad48a" d="M 307.582031 126.257812 C 307.582031 126.105469 307.582031 126.027344 307.507812 125.875 C 307.429688 125.644531 307.355469 125.335938 307.199219 125.105469 C 307.199219 125.03125 307.125 124.953125 307.046875 124.875 C 307.046875 124.875 307.046875 124.800781 306.96875 124.722656 C 306.894531 124.570312 306.738281 124.414062 306.585938 124.261719 C 306.507812 124.1875 306.355469 124.03125 306.277344 123.957031 C 306.125 123.878906 306.046875 123.726562 305.894531 123.648438 C 305.742188 123.570312 305.664062 123.496094 305.511719 123.417969 C 305.355469 123.417969 305.28125 123.265625 305.125 123.265625 C 304.972656 123.265625 304.820312 123.1875 304.664062 123.109375 C 304.589844 123.109375 304.433594 123.109375 304.359375 123.109375 C 304.359375 123.109375 304.203125 123.109375 304.128906 123.109375 C 303.972656 123.109375 303.820312 123.109375 303.742188 123.109375 L 80.332031 123.109375 C 80.179688 123.109375 80.027344 123.109375 79.949219 123.109375 C 79.871094 123.109375 79.796875 123.109375 79.71875 123.109375 C 79.640625 123.109375 79.488281 123.109375 79.410156 123.109375 C 79.257812 123.109375 79.105469 123.1875 78.949219 123.265625 C 78.796875 123.265625 78.644531 123.339844 78.566406 123.417969 C 78.414062 123.417969 78.257812 123.570312 78.183594 123.648438 C 78.027344 123.726562 77.953125 123.800781 77.796875 123.957031 C 77.644531 124.03125 77.566406 124.1875 77.414062 124.261719 C 77.414062 124.261719 77.335938 124.414062 77.261719 124.492188 C 77.261719 124.492188 77.183594 124.644531 77.105469 124.722656 C 77.105469 124.800781 77.03125 124.875 76.953125 124.953125 C 76.953125 125.03125 76.875 125.105469 76.800781 125.183594 C 76.644531 125.414062 76.570312 125.722656 76.492188 126.027344 C 76.492188 126.105469 76.492188 126.183594 76.492188 126.257812 C 76.492188 126.335938 76.492188 126.414062 76.492188 126.488281 C 76.492188 126.644531 76.492188 126.796875 76.492188 126.875 L 76.492188 256.589844 C 76.492188 258.816406 78.335938 260.660156 80.5625 260.660156 L 303.820312 260.660156 C 306.046875 260.660156 307.890625 258.894531 307.890625 256.589844 L 307.890625 126.875 C 307.890625 126.566406 307.890625 126.335938 307.8125 126.027344 Z M 290.917969 131.097656 L 192 200.984375 L 93.082031 131.097656 Z M 299.597656 252.75 L 84.402344 252.75 L 84.402344 134.859375 L 189.621094 209.203125 C 190.308594 209.664062 191.15625 209.972656 191.921875 209.972656 C 192.691406 209.972656 193.535156 209.742188 194.226562 209.203125 L 299.441406 134.859375 L 299.441406 252.75 Z M 307.660156 127.105469 C 307.660156 126.796875 307.660156 126.566406 307.582031 126.257812 C 307.582031 126.488281 307.660156 126.796875 307.660156 127.105469 Z M 307.660156 127.105469 " fill-opacity="1" fill-rule="nonzero"/></svg>