<svg xmlns="http://www.w3.org/2000/svg" xmlns:xlink="http://www.w3.org/1999/xlink" width="512" zoomAndPan="magnify" viewBox="0 0 384 383.999986" height="512" preserveAspectRatio="xMidYMid meet" version="1.0"><path fill="#aad48a" d="M 192 384 C 140.699219 384 92.46875 364.03125 56.21875 327.78125 C 19.96875 291.53125 0 243.300781 0 192 C 0 140.699219 19.96875 92.46875 56.21875 56.21875 C 92.46875 19.96875 140.699219 0 192 0 C 243.300781 0 291.53125 19.96875 327.78125 56.21875 C 364.03125 92.46875 384 140.699219 384 192 C 384 243.300781 364.03125 291.53125 327.78125 327.78125 C 291.53125 364.03125 243.300781 384 192 384 Z M 192 8.0625 C 142.847656 8.0625 96.691406 27.1875 61.976562 61.902344 C 27.1875 96.691406 8.0625 142.847656 8.0625 192 C 8.0625 241.152344 27.1875 287.308594 61.902344 322.023438 C 96.613281 356.734375 142.847656 375.859375 191.921875 375.859375 C 241 375.859375 287.230469 356.734375 321.945312 322.023438 C 356.660156 287.308594 375.78125 241.074219 375.78125 192 C 375.78125 142.925781 356.660156 96.691406 321.945312 61.976562 C 287.308594 27.1875 241.152344 8.0625 192 8.0625 Z M 192 8.0625 " fill-opacity="1" fill-rule="nonzero"/><path fill="#aad48a" d="M 246.144531 275.636719 L 137.855469 275.636719 C 136.089844 275.636719 134.554688 274.484375 134.015625 272.871094 L 100.53125 169.882812 C 99.992188 168.191406 100.53125 166.425781 101.992188 165.351562 L 189.621094 101.683594 C 191 100.683594 192.921875 100.683594 194.378906 101.683594 L 282.007812 165.351562 C 283.390625 166.347656 284.007812 168.191406 283.46875 169.882812 L 249.984375 272.871094 C 249.445312 274.558594 247.910156 275.636719 246.144531 275.636719 Z M 140.773438 267.496094 L 243.148438 267.496094 L 274.789062 170.113281 L 191.921875 109.902344 L 109.054688 170.113281 L 140.699219 267.496094 Z M 140.773438 267.496094 " fill-opacity="1" fill-rule="nonzero"/></svg>