<svg xmlns="http://www.w3.org/2000/svg" xmlns:xlink="http://www.w3.org/1999/xlink" width="512" zoomAndPan="magnify" viewBox="0 0 384 383.999986" height="512" preserveAspectRatio="xMidYMid meet" version="1.0"><path fill="#aad48a" d="M 192 384 C 140.699219 384 92.46875 364.03125 56.21875 327.78125 C 19.96875 291.457031 0 243.300781 0 192 C 0 140.699219 19.96875 92.46875 56.21875 56.21875 C 92.46875 19.96875 140.699219 0 192 0 C 243.300781 0 291.53125 19.96875 327.78125 56.21875 C 364.03125 92.46875 384 140.699219 384 192 C 384 243.300781 364.03125 291.53125 327.78125 327.78125 C 291.53125 364.03125 243.300781 384 192 384 Z M 192 8.0625 C 142.847656 8.0625 96.691406 27.1875 61.976562 61.902344 C 27.1875 96.691406 8.0625 142.847656 8.0625 192 C 8.0625 241.152344 27.1875 287.308594 61.902344 322.023438 C 96.613281 356.734375 142.847656 375.859375 191.921875 375.859375 C 241 375.859375 287.230469 356.734375 321.945312 322.023438 C 356.660156 287.308594 375.78125 241.074219 375.78125 192 C 375.78125 142.925781 356.660156 96.691406 321.945312 61.976562 C 287.308594 27.1875 241.074219 8.0625 192 8.0625 Z M 192 8.0625 " fill-opacity="1" fill-rule="nonzero"/><path fill="#aad48a" d="M 192 312.804688 C 125.335938 312.804688 71.117188 258.585938 71.117188 191.921875 C 71.117188 125.261719 125.335938 71.117188 192 71.117188 C 258.664062 71.117188 312.882812 125.335938 312.882812 192 C 312.882812 258.664062 258.664062 312.882812 192 312.882812 Z M 192 87.320312 C 134.246094 87.320312 87.320312 134.246094 87.320312 192 C 87.320312 249.753906 134.246094 296.679688 192 296.679688 C 249.753906 296.679688 296.679688 249.753906 296.679688 192 C 296.679688 134.246094 249.753906 87.320312 192 87.320312 Z M 192 87.320312 " fill-opacity="1" fill-rule="nonzero"/><path fill="#aad48a" d="M 192 125.953125 C 189.773438 125.953125 187.929688 124.109375 187.929688 121.882812 L 187.929688 105.445312 C 187.929688 103.21875 189.773438 101.375 192 101.375 C 194.226562 101.375 196.070312 103.21875 196.070312 105.445312 L 196.070312 121.882812 C 196.070312 124.109375 194.226562 125.953125 192 125.953125 Z M 145.304688 145.304688 C 146.917969 143.691406 146.917969 141.160156 145.304688 139.621094 L 133.707031 128.027344 C 132.097656 126.414062 129.5625 126.414062 128.027344 128.027344 C 126.414062 129.636719 126.414062 132.171875 128.027344 133.707031 L 139.621094 145.304688 C 140.390625 146.074219 141.464844 146.457031 142.464844 146.457031 C 143.460938 146.457031 144.539062 146.074219 145.304688 145.304688 Z M 125.953125 192 C 125.953125 189.773438 124.109375 187.929688 121.882812 187.929688 L 105.445312 187.929688 C 103.21875 187.929688 101.375 189.773438 101.375 192 C 101.375 194.226562 103.21875 196.070312 105.445312 196.070312 L 121.882812 196.070312 C 124.109375 196.070312 125.953125 194.226562 125.953125 192 Z M 133.707031 255.972656 L 145.304688 244.378906 C 146.917969 242.765625 146.917969 240.230469 145.304688 238.695312 C 143.691406 237.082031 141.160156 237.082031 139.621094 238.695312 L 128.027344 250.292969 C 126.414062 251.902344 126.414062 254.4375 128.027344 255.972656 C 128.792969 256.742188 129.867188 257.125 130.867188 257.125 C 131.867188 257.125 132.941406 256.742188 133.707031 255.972656 Z M 195.992188 278.476562 L 195.992188 262.042969 C 195.992188 259.8125 194.152344 257.972656 191.921875 257.972656 C 189.695312 257.972656 187.851562 259.8125 187.851562 262.042969 L 187.851562 278.476562 C 187.851562 280.703125 189.695312 282.546875 191.921875 282.546875 C 194.152344 282.546875 195.992188 280.703125 195.992188 278.476562 Z M 255.972656 255.972656 C 257.585938 254.363281 257.585938 251.828125 255.972656 250.292969 L 244.378906 238.695312 C 242.765625 237.082031 240.230469 237.082031 238.695312 238.695312 C 237.082031 240.308594 237.082031 242.839844 238.695312 244.378906 L 250.292969 255.972656 C 251.058594 256.742188 252.132812 257.125 253.132812 257.125 C 254.132812 257.125 255.207031 256.742188 255.972656 255.972656 Z M 282.46875 192 C 282.46875 189.773438 280.628906 187.929688 278.398438 187.929688 L 261.964844 187.929688 C 259.738281 187.929688 257.894531 189.773438 257.894531 192 C 257.894531 194.226562 259.738281 196.070312 261.964844 196.070312 L 278.398438 196.070312 C 280.628906 196.070312 282.46875 194.226562 282.46875 192 Z M 244.378906 145.304688 L 255.972656 133.707031 C 257.585938 132.097656 257.585938 129.5625 255.972656 128.027344 C 254.363281 126.414062 251.828125 126.414062 250.292969 128.027344 L 238.695312 139.621094 C 237.082031 141.234375 237.082031 143.769531 238.695312 145.304688 C 239.460938 146.074219 240.539062 146.457031 241.535156 146.457031 C 242.535156 146.457031 243.609375 146.074219 244.378906 145.304688 Z M 244.378906 145.304688 " fill-opacity="1" fill-rule="nonzero"/><path fill="#aad48a" d="M 222.71875 222.257812 C 221.566406 223.410156 219.957031 224.027344 218.417969 224.027344 C 216.882812 224.027344 215.347656 223.410156 214.117188 222.257812 L 188.621094 196.761719 C 186.929688 195.6875 185.855469 193.84375 185.855469 191.691406 L 185.855469 145.074219 C 185.855469 141.695312 188.542969 139.007812 191.921875 139.007812 C 195.300781 139.007812 197.992188 141.695312 197.992188 145.074219 L 197.992188 189.003906 L 222.644531 213.65625 C 225.023438 216.039062 225.023438 219.878906 222.644531 222.257812 Z M 222.71875 222.257812 " fill-opacity="1" fill-rule="nonzero"/></svg>